HIERARCHY
ROOT Hips
{
	OFFSET	0.00	0.00	0.00
	CHANNELS 6 Xposition Yposition Zposition Zrotation Xrotation Yrotation
	JOINT LeftUpLeg
	{
		OFFSET	 0.126116	-0.014019	-0.065224
		CHANNELS 3 Zrotation Xrotation Yrotation
		JOINT LeftLeg
		{
			OFFSET	 0.000000	 0.000000	 0.569914
			CHANNELS 3 Zrotation Xrotation Yrotation
			JOINT LeftFoot
			{
				OFFSET	 0.000000	 0.000000	 0.544423
				CHANNELS 3 Zrotation Xrotation Yrotation
				JOINT LeftToeBase
				{
					OFFSET	 0.000000	 0.000000	 0.207117
					CHANNELS 3 Zrotation Xrotation Yrotation
					End Site
					{
						OFFSET	 0.000000	 0.000000	 0.207117
					}
				}
			}
		}
	}
	JOINT RightUpLeg
	{
		OFFSET	-0.124023	-0.008373	-0.065224
		CHANNELS 3 Zrotation Xrotation Yrotation
		JOINT RightLeg
		{
			OFFSET	 0.000000	 0.000000	 0.570047
			CHANNELS 3 Zrotation Xrotation Yrotation
			JOINT RightFoot
			{
				OFFSET	 0.000000	 0.000000	 0.544354
				CHANNELS 3 Zrotation Xrotation Yrotation
				JOINT RightToeBase
				{
					OFFSET	 0.000000	 0.000000	 0.207540
					CHANNELS 3 Zrotation Xrotation Yrotation
					End Site
					{
						OFFSET	 0.000000	 0.000000	 0.207540
					}
				}
			}
		}
	}
	JOINT Spine
	{
		OFFSET	 0.000184	-0.007763	 0.117403
		CHANNELS 3 Zrotation Xrotation Yrotation
		JOINT Spine1
		{
			OFFSET	 0.000000	 0.000000	 0.137269
			CHANNELS 3 Zrotation Xrotation Yrotation
			JOINT Spine2
			{
				OFFSET	 0.000000	 0.000000	 0.156879
				CHANNELS 3 Zrotation Xrotation Yrotation
				JOINT LeftShoulder
				{
					OFFSET	 0.080501	-0.002496	 0.160144
					CHANNELS 3 Zrotation Xrotation Yrotation
					JOINT LeftArm
					{
						OFFSET	 0.000000	 0.000000	 0.164363
						CHANNELS 3 Zrotation Xrotation Yrotation
						JOINT LeftForeArm
						{
							OFFSET	 0.000000	 0.000000	 0.364576
							CHANNELS 3 Zrotation Xrotation Yrotation
							JOINT LeftHand
							{
								OFFSET	 0.000000	 0.000000	 0.360812
								CHANNELS 3 Zrotation Xrotation Yrotation
								JOINT LeftHandIndex1
								{
									OFFSET	 0.000000	 0.000000	 0.086006
									CHANNELS 3 Zrotation Xrotation Yrotation
									JOINT LeftHandIndex2
									{
										OFFSET	 0.000000	 0.000000	 0.047236
										CHANNELS 3 Zrotation Xrotation Yrotation
										JOINT LeftHandIndex3
										{
											OFFSET	-0.004284	-0.000551	 0.038166
											CHANNELS 3 Zrotation Xrotation Yrotation
											End Site
											{
												OFFSET	-0.004284	-0.000551	 0.038166
											}
										}
									}
								}
							}
						}
					}
				}
				JOINT Neck
				{
					OFFSET	 0.000000	 0.000000	 0.176489
					CHANNELS 3 Zrotation Xrotation Yrotation
					JOINT Head
					{
						OFFSET	 0.000000	-0.001747	 0.077940
						CHANNELS 3 Zrotation Xrotation Yrotation
						End Site
						{
							OFFSET	 0.000000	-0.001747	 0.077940
						}
					}
				}
				JOINT RightShoulder
				{
					OFFSET	-0.080363	 0.000306	 0.159706
					CHANNELS 3 Zrotation Xrotation Yrotation
					JOINT RightArm
					{
						OFFSET	 0.000000	 0.000000	 0.164196
						CHANNELS 3 Zrotation Xrotation Yrotation
						JOINT RightForeArm
						{
							OFFSET	 0.000000	 0.000000	 0.365611
							CHANNELS 3 Zrotation Xrotation Yrotation
							JOINT RightHand
							{
								OFFSET	 0.000000	 0.000000	 0.360648
								CHANNELS 3 Zrotation Xrotation Yrotation
								JOINT RightHandIndex1
								{
									OFFSET	 0.000000	 0.000000	 0.069977
									CHANNELS 3 Zrotation Xrotation Yrotation
									JOINT RightHandIndex2
									{
										OFFSET	 0.000000	 0.000000	 0.052305
										CHANNELS 3 Zrotation Xrotation Yrotation
										JOINT RightHandIndex3
										{
											OFFSET	 0.009002	-0.000782	 0.042196
											CHANNELS 3 Zrotation Xrotation Yrotation
											End Site
											{
												OFFSET	 0.009002	-0.000782	 0.042196
											}
										}
									}
								}
							}
						}
					}
				}
			}
		}
	}
}
MOTION
Frames:    11
Frame Time: 0.03333334
-0.083022	 6.670626	 1.252559	-96.338250	 1.901818	 1.360699	-53.371940	-11.359050	-175.610300	 17.891510	-41.438770	 5.879029	-94.443200	 75.866620	 70.908240	-2.200071	 46.816400	-0.476216	 34.307260	-10.059070	 175.163700	-8.511390	-45.021260	-0.297807	 39.745200	 84.685110	-22.295850	 1.948345	 56.698110	 0.868661	-17.117590	 5.633562	 1.951660	-15.567940	 7.926842	-11.521990	 1.469514	-22.844880	 7.150378	-91.229230	 83.958370	 178.242500	 83.200410	 58.536660	-82.691530	 0.268338	-16.485910	-45.113990	 29.164010	 4.562896	-12.034220	-11.621430	 9.752313	-25.846400	-5.213937	-0.202400	 3.566957	-1.378229	 35.397820	-2.634230	-0.771461	 4.330248	 1.534965	-5.108928	-13.514910	-13.241310	 87.524190	 87.571260	-176.543800	-8.842714	 78.361590	-11.149120	-4.496755	-12.486860	 26.897010	-21.654280	-3.203440	 9.250092	-1.406834	 24.527230	-62.065900	 5.070519	-0.690904	-9.399550	-2.350882	 35.473990	 5.254307
-0.083307	 6.692054	 1.253036	-92.043620	 2.544354	 1.850023	-55.569680	-11.216380	-177.067000	 19.124320	-42.428690	 6.836527	-96.436930	 74.874770	 72.694820	-2.219407	 45.691810	-0.440315	 31.641610	-8.586816	 176.924000	-6.555140	-42.097460	 1.029431	 49.149060	 84.311620	-33.268910	 2.070650	 52.654520	 0.689804	-17.617850	 5.440761	 1.644399	-15.628900	 9.021625	-11.936520	 3.504399	-24.738030	 7.984683	-91.229290	 83.958340	 178.242600	 87.677190	 61.663220	-85.151020	 0.459865	-17.231890	-45.980720	 27.770110	 3.036056	-10.601530	-11.155190	 9.609491	-24.074290	-5.213937	-0.202400	 3.566957	-1.378229	 35.397820	-2.634230	 1.510384	 5.681192	-1.142027	-2.955225	-16.604280	-9.293009	 87.535880	 87.562810	-176.555200	-6.347853	 78.469560	-13.586200	-4.326365	-12.621250	 27.334020	-21.642290	-3.286145	 9.287933	-1.696159	 24.195780	-62.515320	 5.070519	-0.690904	-9.399550	-2.350882	 35.473990	 5.254307
-0.083516	 6.724765	 1.253451	-86.369190	 3.358218	 1.945045	-57.499220	-11.127320	-178.638000	 19.930550	-43.084720	 7.481534	-94.780960	 74.119580	 71.349600	-2.277447	 41.712110	-0.322522	 27.457990	-7.046778	 177.733600	-3.903855	-39.693630	 2.676695	 52.912090	 84.929630	-38.589020	 2.030362	 54.114280	 0.750650	-17.834790	 5.097637	 1.560538	-15.389970	 9.867089	-11.733220	 6.678973	-26.803950	 9.123873	-91.229190	 83.958340	 178.242500	 95.371960	 68.665150	-90.408130	 1.325235	-17.832580	-45.334750	 23.597540	-0.075578	-7.499391	-11.097310	 8.580678	-23.078130	-5.213937	-0.202400	 3.566957	-1.378229	 35.397820	-2.634230	 5.384090	 7.393052	-5.882025	 1.095484	-20.363020	-2.058390	 87.586790	 87.526540	-176.616500	-3.494801	 78.574500	-16.344580	-3.872490	-12.970560	 28.497890	-21.576460	-3.436766	 9.371343	-0.412469	 26.100310	-62.461250	 5.070519	-0.690904	-9.399550	-2.350882	 35.473990	 5.254307
-0.084006	 6.734440	 1.253511	-85.006380	 3.363337	 1.960315	-57.413800	-10.950680	-178.851500	 19.984060	-43.194390	 7.533999	-94.476160	 74.091590	 71.125090	-2.276835	 41.760350	-0.323876	 26.250330	-6.698308	 177.534700	-3.140138	-39.526230	 3.155186	 57.161770	 85.562180	-43.190270	 2.064928	 52.871010	 0.698584	-17.601740	 5.085727	 1.597857	-15.082020	 10.040330	-11.559270	 7.454094	-27.099180	 9.420099	-91.229150	 83.958370	 178.242500	 96.751470	 70.383900	-91.430440	 1.194809	-17.331830	-44.780420	 21.824440	-0.833528	-6.718672	-11.020580	 8.578025	-22.810790	-5.213937	-0.202400	 3.566957	-1.378229	 35.397820	-2.634230	 6.360400	 7.910531	-6.810800	 2.176645	-21.363460	-0.218288	 87.605380	 87.512570	-176.640300	-3.684904	 78.434420	-15.857940	-3.422224	-12.809860	 28.743100	-21.253000	-3.458169	 9.438373	-0.648845	 25.798510	-62.697530	 5.070519	-0.690904	-9.399550	-2.350882	 35.473990	 5.254307
-0.085060	 6.752650	 1.253619	-82.515200	 3.274754	 1.991077	-57.012040	-10.645180	-179.162800	 20.053340	-43.468030	 7.620371	-94.005460	 74.093840	 70.812640	-2.269008	 42.360500	-0.340819	 23.943870	-5.921332	 177.032800	-1.714038	-39.138710	 4.034824	 69.934520	 86.727750	-56.613860	 2.140589	 49.723590	 0.578025	-17.055440	 5.115475	 1.681274	-14.411810	 10.370940	-11.202930	 8.853409	-27.551920	 9.965590	-91.229420	 83.958340	 178.242700	 98.191990	 73.591330	-92.168720	 0.673014	-16.242290	-43.934700	 18.329950	-2.339971	-5.396142	-10.840510	 8.705137	-22.278670	-5.213937	-0.202400	 3.566957	-1.378229	 35.397820	-2.634230	 8.156152	 8.868795	-8.419280	 4.237095	-23.135560	 3.249371	 87.726920	 87.418960	-176.798900	-4.477911	 77.890430	-14.407500	-2.452278	-12.381720	 29.118730	-20.530610	-3.488312	 9.582865	-1.366014	 24.859900	-63.259510	 5.070519	-0.690904	-9.399550	-2.350882	 35.473990	 5.254307
-0.085057	 6.775836	 1.254100	-79.393150	 3.802633	 2.111921	-58.377890	-10.801850	-179.896200	 21.099730	-44.085410	 8.448861	-90.852620	 73.361650	 67.793950	-2.403464	 22.936720	 0.115340	 21.015340	-5.121570	 176.793300	-0.040889	-37.623540	 4.934398	 78.162570	 87.784240	-65.715310	 2.168906	 48.354420	 0.529904	-16.146660	 4.923562	 1.394321	-13.347510	 9.923166	-10.361050	 9.797132	-27.697280	 9.809818	-91.229220	 83.958370	 178.242500	 95.952510	 77.392510	-89.016520	-0.716635	-14.421490	-43.312100	 13.789050	-4.241533	-4.207513	-10.517480	 9.016356	-21.370460	-5.213937	-0.202400	 3.566957	-1.378229	 35.397820	-2.634230	 10.039860	 9.506108	-10.011260	 6.426974	-24.140140	 6.684557	 87.726760	 87.419040	-176.798700	 1.228393	 76.819150	-19.325990	-2.507176	-12.735470	 29.744990	-19.746800	-4.204856	 9.109882	-0.837320	 25.651400	-63.331240	 5.070519	-0.690904	-9.399550	-2.350882	 35.473990	 5.254307
-0.084944	 6.798062	 1.255137	-76.362560	 4.479707	 2.025090	-57.589010	-11.592080	 179.063700	 20.886340	-44.928360	 8.420451	-90.768140	 73.470790	 68.129360	-2.407155	 20.607260	 0.162158	 18.985750	-4.077019	 176.539900	 0.969321	-35.529890	 5.294032	 125.348400	 88.517070	-113.377000	 2.243397	 44.032190	 0.391653	-15.002330	 4.707942	 1.221351	-12.085700	 8.978485	-9.725721	 10.831650	-27.518000	 9.892048	-91.229230	 83.958340	 178.242500	 81.464590	 80.966450	-74.870770	-1.492391	-12.509060	-40.933660	 9.839516	-6.383595	-3.287338	-10.200410	 9.059065	-20.279900	-5.213937	-0.202400	 3.566957	-1.378229	 35.397820	-2.634230	 11.680940	 10.265820	-11.207210	 8.379157	-24.928970	 9.869219	 87.726720	 87.418890	-176.798700	 4.273342	 75.339610	-21.811370	-1.974162	-12.667140	 30.308240	-18.690660	-4.798103	 8.832117	-0.482062	 26.237790	-63.687920	 5.070519	-0.690904	-9.399550	-2.350882	 35.473990	 5.254307
-0.083394	 6.826188	 1.256333	-72.554020	 5.151711	 1.979732	-54.548540	-12.839780	 177.500700	 19.505670	-46.258890	 7.595622	-94.668050	 74.207740	 72.792470	-2.369734	 31.558570	-0.068653	 16.907630	-2.771668	 175.882700	 1.819166	-32.721420	 5.394750	 179.189400	 87.297520	-167.683200	 2.321639	 37.576540	 0.214224	-13.868380	 4.798406	 0.935445	-10.698670	 8.110426	-9.061303	 12.226760	-27.290190	 10.129460	-91.229230	 83.958340	 178.242500	 38.914850	 82.575290	-33.240850	-2.171806	-11.022390	-38.871990	 5.991123	-9.078405	-2.466656	-10.054640	 8.940182	-19.684390	-5.213937	-0.202400	 3.566957	-1.378229	 35.397820	-2.634230	 13.426290	 11.004310	-12.166300	 10.424370	-25.394300	 13.268400	 87.727020	 87.418820	-176.799000	 5.947491	 73.300830	-22.252310	-0.697999	-12.261940	 31.254230	-16.987880	-5.531363	 8.633475	-0.309313	 26.552760	-64.044430	 5.070519	-0.690904	-9.399550	-2.350882	 35.473990	 5.254307
-0.081773	 6.840750	 1.256766	-70.720970	 5.344163	 2.179071	-53.483490	-13.236850	 176.733100	 19.195540	-47.029540	 7.461155	-96.598900	 74.265850	 75.014980	-2.373621	 30.888180	-0.053554	 15.587840	-2.209490	 175.306200	 2.334162	-31.279210	 5.456476	-169.803400	 86.967650	-179.090700	 2.332060	 36.449700	 0.185951	-13.501520	 5.031384	 0.573560	-10.126870	 8.045603	-8.596443	 12.748670	-27.335450	 10.017340	-91.229270	 83.958370	 178.242600	 18.417340	 81.152730	-12.944340	-2.561185	-10.757080	-39.057360	 4.559383	-10.225100	-2.207874	-10.161210	 8.986323	-20.091990	-5.213937	-0.202400	 3.566957	-1.378229	 35.397820	-2.634230	 14.134970	 11.000850	-12.436170	 11.186820	-25.206510	 14.452940	 87.726900	 87.418960	-176.798900	 7.421512	 72.248500	-22.658960	-0.260430	-12.295730	 31.955920	-16.180900	-6.087391	 8.392520	-0.089259	 26.829180	-63.838480	 5.070519	-0.690904	-9.399550	-2.350882	 35.473990	 5.254307
-0.077811	 6.864461	 1.257254	-68.011220	 5.821346	 2.410769	-51.026600	-14.309960	 175.318700	 18.101220	-48.321340	 6.786687	-100.494400	 74.442180	 79.644330	-2.359847	 33.107190	-0.104147	 12.825770	-1.704861	 174.719700	 3.366512	-29.202670	 5.647177	-155.144000	 87.189240	 165.299700	 2.338954	 35.648660	 0.166247	-12.666540	 5.221962	-0.130922	-9.068072	 8.024931	-7.535100	 12.925690	-27.365090	 9.381462	-91.229330	 83.958370	 178.242600	 0.233698	 76.967120	 4.342624	-2.365936	-10.859460	-38.885350	 3.422693	-11.654170	-1.763863	-10.514540	 7.820602	-20.544520	-5.213937	-0.202400	 3.566957	-1.378229	 35.397820	-2.634230	 14.696320	 11.278260	-12.576020	 12.031720	-25.139320	 16.380590	 87.726500	 87.418890	-176.798500	 6.899471	 70.481330	-20.211080	 0.770073	-12.245590	 33.420190	-15.153870	-6.659181	 8.342628	-0.638651	 26.120340	-64.242520	 5.070519	-0.690904	-9.399550	-2.350882	 35.473990	 5.254307
-0.073712	 6.886719	 1.256921	-65.614340	 6.171972	 2.544151	-48.298700	-15.610370	 174.368500	 17.197340	-49.512400	 6.215585	-103.167300	 74.648380	 82.924300	-2.366682	 32.059250	-0.080023	 10.444000	-1.176169	 174.395000	 4.633559	-27.321870	 5.896094	-145.869600	 87.179080	 154.825200	 2.358659	 33.047000	 0.104308	-11.755160	 5.378067	-0.515575	-8.007091	 8.566876	-7.424398	 13.515390	-27.485180	 9.617531	-91.229230	 83.958270	 178.242500	-8.844971	 72.531700	 13.132160	-2.046525	-11.443920	-39.640130	 2.721291	-12.811180	-1.335748	-10.743570	 6.926719	-20.736290	-5.213937	-0.202400	 3.566957	-1.378229	 35.397820	-2.634230	 15.147520	 11.663850	-12.553180	 12.724410	-25.304770	 17.903860	 87.726630	 87.418960	-176.798600	 6.826826	 68.797050	-18.045170	 1.360561	-12.598120	 35.121390	-14.496000	-7.397702	 8.165974	-1.057793	 25.527010	-64.277080	 5.070519	-0.690904	-9.399550	-2.350882	 35.473990	 5.254307
